<?xml version="1.0" encoding="UTF-8" standalone="no"?>
<!-- Created with Inkscape (http://www.inkscape.org/) -->

<svg
   width="320"
   height="200"
   viewBox="0 0 320 200"
   version="1.1"
   id="svg5"
   inkscape:version="1.2 (dc2aedaf03, 2022-05-15)"
   sodipodi:docname="screenshot.svg"
   inkscape:export-filename="../screenshot.png"
   inkscape:export-xdpi="96"
   inkscape:export-ydpi="96"
   xmlns:inkscape="http://www.inkscape.org/namespaces/inkscape"
   xmlns:sodipodi="http://sodipodi.sourceforge.net/DTD/sodipodi-0.dtd"
   xmlns="http://www.w3.org/2000/svg"
   xmlns:svg="http://www.w3.org/2000/svg">
  <sodipodi:namedview
     id="namedview7"
     pagecolor="#505050"
     bordercolor="#eeeeee"
     borderopacity="1"
     inkscape:showpageshadow="0"
     inkscape:pageopacity="0"
     inkscape:pagecheckerboard="0"
     inkscape:deskcolor="#505050"
     inkscape:document-units="px"
     showgrid="false"
     inkscape:zoom="1.3037281"
     inkscape:cx="193.29183"
     inkscape:cy="144.96887"
     inkscape:window-width="1304"
     inkscape:window-height="745"
     inkscape:window-x="54"
     inkscape:window-y="-8"
     inkscape:window-maximized="1"
     inkscape:current-layer="layer1" />
  <defs
     id="defs2" />
  <g
     inkscape:label="Layer 1"
     inkscape:groupmode="layer"
     id="layer1">
    <rect
       style="fill:#a8cbfe;stroke:none;stroke-width:1;stroke-miterlimit:0;stroke-dasharray:none"
       id="rect1886"
       width="320"
       height="200"
       x="0"
       y="0"
       ry="4.4408921e-16" />
    <path
       id="path1738"
       style="fill:#5a9cfe;stroke:none;stroke-width:1.24555;stroke-miterlimit:0;stroke-dasharray:none"
       d="M 171.32753,25.350841 A 56.186156,99.177807 53.032143 0 0 53.688342,99.99878 56.186156,99.177807 53.032143 0 0 85.343631,174.64915 56.186156,99.177807 53.032143 0 0 202.98422,99.99878 56.186156,99.177807 53.032143 0 0 171.32753,25.350841 Z m -10.57211,17.457181 c 1.92543,-0.01676 3.8014,0.05576 5.60671,0.233541 0.81819,0.07345 1.83748,0.208538 2.47514,0.306523 3.81424,0.577395 7.30107,1.610727 10.38189,3.072522 10.49202,4.894108 15.92825,15.002839 15.02676,27.655134 -0.61357,10.672477 -5.94528,23.129223 -14.66826,34.977608 -10.74993,14.73026 -26.99882,28.34335 -44.07966,37.10625 -17.07743,8.87602 -35.35584,12.77174 -48.807297,10.29769 -12.021051,-2.09972 -20.378472,-9.06404 -23.1974,-19.25497 -0.31857,-1.09616 -0.577744,-2.39402 -0.741712,-3.46419 -1.875396,-11.45103 2.771302,-26.18401 12.581341,-40.317418 0.571769,-0.83504 1.343871,-1.905142 1.827757,-2.573815 5.043665,-6.850513 11.254193,-13.484302 18.187289,-19.486069 2.84661,-2.469871 6.018842,-4.991561 9.207252,-7.298153 18.09248,-13.175356 39.30551,-21.151995 56.20019,-21.254653 z" />
    <text
       xml:space="preserve"
       style="font-style:normal;font-variant:normal;font-weight:bold;font-stretch:normal;font-size:42px;line-height:1.25;font-family:'Fira Code';-inkscape-font-specification:'Fira Code Bold';fill:#0d6efd;fill-opacity:1;stroke:none;stroke-width:1.43189;stroke-dasharray:none"
       x="102.82876"
       y="88.01162"
       id="text186"><tspan
         sodipodi:role="line"
         id="tspan184"
         x="102.82876"
         y="88.01162"
         style="font-style:normal;font-variant:normal;font-weight:bold;font-stretch:normal;font-size:42px;font-family:sans-serif;-inkscape-font-specification:'sans-serif Bold';fill:#0d6efd;stroke:none;stroke-width:1.43189;stroke-dasharray:none">BeTween</tspan><tspan
         sodipodi:role="line"
         x="102.82876"
         y="141.97638"
         id="tspan188"
         style="font-style:normal;font-variant:normal;font-weight:bold;font-stretch:normal;font-size:42px;font-family:sans-serif;-inkscape-font-specification:'sans-serif Bold';fill:#0d6efd;stroke:none;stroke-width:1.43189;stroke-dasharray:none">API</tspan></text>
  </g>
</svg>
