<?xml version="1.0" encoding="UTF-8" standalone="no"?>
<!-- Created with Inkscape (http://www.inkscape.org/) -->

<svg
   width="320"
   height="200"
   viewBox="0 0 320 200"
   version="1.1"
   id="svg5"
   inkscape:version="1.2 (1:1.2.1+202207142221+cd75a1ee6d)"
   sodipodi:docname="screenshot.svg"
   inkscape:export-filename="../screenshot.png"
   inkscape:export-xdpi="96"
   inkscape:export-ydpi="96"
   xml:space="preserve"
   xmlns:inkscape="http://www.inkscape.org/namespaces/inkscape"
   xmlns:sodipodi="http://sodipodi.sourceforge.net/DTD/sodipodi-0.dtd"
   xmlns="http://www.w3.org/2000/svg"
   xmlns:svg="http://www.w3.org/2000/svg"
   xmlns:rdf="http://www.w3.org/1999/02/22-rdf-syntax-ns#"
   xmlns:cc="http://creativecommons.org/ns#"
   xmlns:dc="http://purl.org/dc/elements/1.1/"><title
     id="title806">BeTween logo</title><sodipodi:namedview
     id="namedview7"
     pagecolor="#505050"
     bordercolor="#eeeeee"
     borderopacity="1"
     inkscape:showpageshadow="0"
     inkscape:pageopacity="0"
     inkscape:pagecheckerboard="0"
     inkscape:deskcolor="#505050"
     inkscape:document-units="px"
     showgrid="true"
     inkscape:zoom="1.84375"
     inkscape:cx="117.9661"
     inkscape:cy="83.79661"
     inkscape:window-width="1326"
     inkscape:window-height="737"
     inkscape:window-x="40"
     inkscape:window-y="0"
     inkscape:window-maximized="1"
     inkscape:current-layer="layer1"><inkscape:grid
       type="xygrid"
       id="grid422"
       spacingx="16"
       spacingy="8" /></sodipodi:namedview><defs
     id="defs2" /><g
     inkscape:label="Layer 1"
     inkscape:groupmode="layer"
     id="layer1"><rect
       style="fill:#a8cbfe;stroke:none;stroke-width:1;stroke-miterlimit:0;stroke-dasharray:none;fill-opacity:1"
       id="rect1886"
       width="320"
       height="200"
       x="0"
       y="0"
       ry="4.4408921e-16" /><path
       id="path1500"
       style="fill:#5a9cfe;fill-opacity:1;stroke-width:1.05556;stroke-opacity:0.386447"
       d="m 144.01819,24 c -41.97364,-1e-6 -92.117751,34.026358 -112.000002,76 -19.882251,41.97364 -1.973641,76 40,76 41.973642,0 92.117752,-34.02636 112.000002,-76 19.88225,-41.973641 1.97364,-76 -40,-76 z m -14.509,16.676453 c 6.44707,-0.08238 12.22956,1.639548 16.90167,4.927277 6.88729,4.78642 11.19276,13.152184 12.29567,23.477451 1.27938,11.416137 -1.58771,25.289699 -7.84457,38.581609 -1.55594,3.31903 -3.43653,6.81538 -5.44629,10.08634 -0.44809,0.7379 -1.01736,1.62575 -1.41567,2.25087 -2.96855,4.5794 -6.29226,8.96136 -9.88784,13.0054 -2.14785,2.41914 -4.55229,4.89633 -6.9425,7.09303 -0.96075,0.89341 -2.07751,1.87056 -2.9529,2.61847 -10.56381,8.99531 -22.29612,14.81744 -32.83157,16.21963 -0.446617,0.0683 -1.056824,0.12526 -1.39278,0.17022 -7.179014,0.71566 -13.752063,-0.56329 -19.026587,-3.80456 -8.832,-5.29333 -13.933369,-16.05559 -14.012106,-29.42784 -0.01059,-0.5018 0.0054,-1.20217 0.0041,-1.58992 0.124911,-6.23849 1.272856,-12.96032 3.376795,-19.77611 0.668757,-2.16567 1.529079,-4.611144 2.441975,-6.884787 C 68.090889,84.198126 77.050163,71.03364 87.645923,60.939675 100.82325,48.275138 116.48385,40.722635 129.50919,40.676453 Z"
       sodipodi:nodetypes="ssssscccccccccccccccccc" /><text
       xml:space="preserve"
       style="font-style:normal;font-variant:normal;font-weight:bold;font-stretch:normal;font-size:42px;line-height:1.25;font-family:'Fira Code';-inkscape-font-specification:'Fira Code Bold';fill:#0d6efd;fill-opacity:1;stroke:none;stroke-width:1.43189;stroke-dasharray:none"
       x="89.153168"
       y="88.01162"
       id="text186"><tspan
         sodipodi:role="line"
         id="tspan184"
         x="89.153168"
         y="88.01162"
         style="font-style:normal;font-variant:normal;font-weight:bold;font-stretch:normal;font-size:42px;font-family:sans-serif;-inkscape-font-specification:'sans-serif Bold';fill:#0d6efd;stroke:none;stroke-width:1.43189;stroke-dasharray:none;fill-opacity:1">BeTween</tspan><tspan
         sodipodi:role="line"
         x="89.153168"
         y="140.51163"
         id="tspan188"
         style="font-style:normal;font-variant:normal;font-weight:bold;font-stretch:normal;font-size:42px;font-family:sans-serif;-inkscape-font-specification:'sans-serif Bold';fill:#0d6efd;stroke:none;stroke-width:1.43189;stroke-dasharray:none;fill-opacity:1">API</tspan></text></g><metadata
     id="metadata804"><rdf:RDF><cc:Work
         rdf:about=""><dc:title>BeTween logo</dc:title><dc:creator><cc:Agent><dc:title>GianptDev (_gianpy_)</dc:title></cc:Agent></dc:creator></cc:Work></rdf:RDF></metadata></svg>
